<?xml version="1.0" encoding="UTF-8" standalone="no"?>
<svg
   width="100px"
   height="100px"
   style="enable-background:new 0 0 100 100"
   version="1.1"
   viewBox="0 0 100 100"
   xml:space="preserve"
   id="svg14"
   sodipodi:docname="mpf.svg"
   inkscape:version="1.2.2 (b0a8486541, 2022-12-01)"
   xmlns:inkscape="http://www.inkscape.org/namespaces/inkscape"
   xmlns:sodipodi="http://sodipodi.sourceforge.net/DTD/sodipodi-0.dtd"
   xmlns="http://www.w3.org/2000/svg"
   xmlns:svg="http://www.w3.org/2000/svg"><defs
   id="defs18" /><sodipodi:namedview
   id="namedview16"
   pagecolor="#ffffff"
   bordercolor="#000000"
   borderopacity="0.25"
   inkscape:showpageshadow="2"
   inkscape:pageopacity="0.0"
   inkscape:pagecheckerboard="0"
   inkscape:deskcolor="#d1d1d1"
   showgrid="false"
   inkscape:zoom="1.668772"
   inkscape:cx="-88.687969"
   inkscape:cy="166.88919"
   inkscape:window-width="1854"
   inkscape:window-height="1131"
   inkscape:window-x="0"
   inkscape:window-y="0"
   inkscape:window-maximized="1"
   inkscape:current-layer="svg14" />

		<path
   d="m 50.468257,51.301634 c -3.26978,-2.391392 -7.897559,-6.073865 -9.46416,-10.817652 -1.5666,-4.74379 -0.954877,-10.856681 1.820489,-14.954661 1.237275,-1.827912 2.920185,-3.41605 4.938927,-3.91329 3.542169,-0.900254 7.099463,1.691157 9.309492,4.818121 4.897137,7.01605 5.220689,17.44568 0.567553,28.693715 -3.536303,-1.885928 -7.131911,-3.805861 -10.966374,-4.759549 -3.834463,-0.953688 -8.029871,-0.948095 -11.629509,0.959377 -3.346755,1.768795 -5.857968,4.993833 -7.859017,8.401084 -1.392449,2.400861 -2.626149,5.239475 -1.955312,7.972406 0.942143,3.881388 5.167339,5.500413 8.848277,5.924783 2.58564,0.300628 4.422618,-1.448728 6.300105,-2.766033 2.186636,-1.534214 3.466998,-3.53275 5.5257,-5.803734 3.95609,-4.398062 7.787665,-4.810546 11.6749,-8.967875"
   style="fill:#d45500;stroke-width:3.05713"
   id="path4"
   sodipodi:nodetypes="csccccsccccacc" /><path
   d="m 28.380672,37.071182 c -8.454009,-6.011934 -8.202711,-5.98376 -9.46416,-10.817652 -2.024253,-7.756958 -0.954877,-10.856681 1.820489,-14.95466 1.237276,-1.8279122 2.920185,-3.4160507 4.938927,-3.9132903 3.542168,-0.9002548 7.099462,1.691157 9.309492,4.8181213 4.897137,7.016049 5.220689,17.44568 0.567553,28.693715 -3.536303,-1.885929 -7.131911,-3.805861 -10.966373,-4.759549 -3.834464,-0.953688 -8.029872,-0.948095 -11.62951,0.959375 -3.3467548,1.768796 -5.8579675,4.993833 -7.8590177,8.401086 -1.3924489,2.40086 -2.6261488,5.239474 -1.9553113,7.972405 0.9421424,3.881388 5.1673392,5.500414 8.848277,5.924783 2.58564,0.300628 3.591834,-0.904387 6.300105,-2.766032 2.144641,-2.272539 4.331363,-4.121046 6.390066,-6.392029 3.95609,-4.398062 6.923298,-4.222252 10.810535,-8.379581"
   style="fill:#d45500;stroke-width:3.05713"
   id="path4-6"
   sodipodi:nodetypes="csccccsccccccc" /><path
   d="M 75.400378,67.037526 C 69.249949,60.064941 65.028112,61.631349 63.899218,53.889685 63.19004,49.026329 65.090887,43.773062 66.670449,39.408083 c 1.413924,-1.695 3.24729,-3.106968 5.305659,-3.399535 3.614454,-0.541421 6.894762,2.392819 8.780707,5.725098 4.170851,7.470724 3.449367,17.880274 -2.305447,28.606542 -3.329833,-2.230212 -5.329549,-3.650881 -9.049473,-4.983487 -3.719926,-1.332454 -9.280506,-2.595767 -13.05301,-1.057934 -3.506843,1.425143 -6.327969,4.382708 -8.65995,7.572831 -1.625633,2.249533 -3.136929,4.950422 -2.742956,7.736696 0.549185,3.95624 3.017558,4.989444 5.532028,6.075005 2.885558,1.245769 6.460382,0.8757 9.427601,-0.160638 2.978603,-1.040314 5.010229,-3.836041 7.506327,-5.765763 3.636194,-2.811125 5.224363,-6.361627 10.882205,-8.467384"
   style="fill:#d45500;stroke-width:3.05713"
   id="path6"
   sodipodi:nodetypes="csccccccccaaac" />
		
		
		
<path
   style="vector-effect:non-scaling-stroke;fill:#d45500;stroke:none;stroke-width:1.19885;stroke-opacity:1;-inkscape-stroke:hairline"
   d="m 29.516217,36.68366 -1.02749,1.320903 61.904446,43.708982 3.533225,-4.522333"
   id="path1103"
   sodipodi:nodetypes="cccc" /></svg>
