<svg xmlns="http://www.w3.org/2000/svg" width="129" height="126" xml:space="preserve"><path fill-rule="evenodd" clip-rule="evenodd" fill="#8A5E3C" d="M40.77 59.471a5.043 5.043 0 1 1-5.045 5.043 5.044 5.044 0 0 1 5.045-5.043m.621-18.375s12.98 4.299 22.365 17.19c0 0 6.121-14.919 24.891-25.271 0 0-19.275 24.657-23.662 44.304-.001 0-10.087-26.664-23.594-36.223zm21.394-3.378a5.043 5.043 0 1 1 0 10.086 5.043 5.043 0 1 1 0-10.086zM91.729 51.4a5.044 5.044 0 1 1 0 10.088 5.044 5.044 0 0 1 0-10.088zm-6.485-3.551s-7.018 10.173-4.736 23.155c0 0 11.753-9.122 29.996-7.191-17.351 4.393-25.906 10.625-31.674 17.865-10.264 12.008-11.021 28.246-3.204 33.104 4.882 0 23.548 3.622 37.464 10.34-15.2-2.303-31.797-3.574-49.183-3.574-15.066 0-29.538.954-43.024 2.707 10.138-5.164 19.607-8.524 31.343-9.473 12.871-9.287 13.641-48.986 33.018-66.933zm-33.5 63.33s20.788-28.331-29.822-38.944c0 0 14.559-4.123 29.47 3.245 0 0 1.054-9.473-4.648-17.191 17.039 12.149 21.404 31.918 5 52.89z"/><path fill-rule="evenodd" clip-rule="evenodd" fill="#258C44" d="m10.801 55.626-5.068.054 4.3.814c.606.22.434.18.58.285-3.433 3.528-9.121.583-10.613-2.21 3.666-2.679 8.676-2.901 10.801 1.057m22.596-.595-4.58-1.3 4.235 2.118c-4.345 3.28-8.869-1.805-9.794-4.9 2.285-.431 4.398-.926 6.717-.031 1.527.59 3.369 2.221 3.422 4.113zM17.923 32.896l-4.724-1.967c.287.42.072.226.484.566.142.118.362.273.517.375l3.024 1.989c-2.196 1.375-5.645.456-7.249-1.085-1.651-1.589-2.737-3.227-3.531-6.08 4.429-1.05 10.37.006 11.479 6.202zm13.945 8.286-5.971-2.607c.447.192 5.091 3.197 5.503 3.771-3.348.656-5.452.346-7.535-1.437-1.133-.971-2.97-3.819-3.302-5.997 5.241-.828 11.422.791 11.305 6.27zm11.817-15.531-6.276-5.261c.947 1.803 4.561 4.934 5.163 6.377-4.815.372-6.555-.629-8.768-3.252-1.903-2.254-3.037-5.356-3.466-8.894 3.591.164 7.438.671 9.775 2.577 2.008 1.638 4.202 4.63 3.572 8.453zm19.391 7.856-.199-5.126c-.182 1.013-.565 4.261-1.248 4.937-1.518-1.893-3.263-3.856-2.258-7.712a11.529 11.529 0 0 1 1.707-3.719c.436-.638.617-.972 1.066-1.513l.993-1.128c.308-.272.092-.114.425-.31 2.672 3.144 4.642 7.678 2.226 11.879-.511.892-1.773 2.32-2.712 2.692zm10.553-12.092.326-6.665c-.5.439-1.39 5.954-1.467 6.469-3.011-1.516-3.898-6.907-.875-11.427.645-.966 1.644-2.487 2.482-2.949 1.432 1.438 3.189 4.742 3.339 7.526.162 3.055-1.959 6.366-3.805 7.046zm13.254-2.87 2.717-5.359c-.146.307-1.32 1.725-1.711 2.296-.314.457-.403.592-.841 1.155l-1.075 1.188c-2.575-4.63 2.744-9.015 6.291-9.855.643 5.668-.02 9.561-5.381 10.575zm11.471 13.361c.667-.755 4.313-3.137 5.493-4.145l-6.074 3.1c-.02-5.879 5.586-7.863 11.553-7.447.22 1.791-2.636 10.594-10.972 8.492zm-6.68 3.745c2.204 2.343 3.736 9.736-1.371 12.46l-.978.379 1.208-5.607-2.16 5.36c-3.857-4.336-1.038-8.54 3.301-12.592zm32.645-1.223c-.426 3.157-3.018 7.93-7.383 8.604-1.392.213-2.982.066-3.855-.505l3.789-2.568a8.89 8.89 0 0 0 .661-.473l-4.989 2.13c-.146-2.128 1.282-4.928 4.068-6.254 2.491-1.187 5.553-1.213 7.709-.934zm-6.127 16.888 4.627-1.005-3.748 1.638c-.506.325-.357.253-.468.379 3.861 2.5 8.43-1.367 9.209-4.223-3.896-1.678-8.507-.836-9.62 3.211zm-8.975 4.666c-1.061 3.253-4.631 6.996-9.172 4.58.437-.335 3.897-2.012 4.457-2.146l-4.674 1.27c-.272-3.509 6.012-5.546 9.389-3.704zm11.158 23.083c-2.152 1.163-6.067 1.472-8.467.657-1.998-.678-4.37-3.04-4.606-5.246l6.772 2.492c-1.939-.935-4.164-2.462-6.258-3.376.857-.927 2.586-1.347 3.857-1.351 1.584-.003 3.011.603 4.015 1.248 1.286.827 4.246 3.707 4.687 5.576zM16.899 73.633c-1.125 1.736-3.157 2.677-4.149 4.282 1.546-.763 3.449-2.749 4.995-3.467-.174 5.923-4.833 7.987-10.836 7.581.252-2.594 1.765-5.139 3.073-6.541 2.071-2.222 5.695-2.813 6.917-1.855z"/><path fill-rule="evenodd" clip-rule="evenodd" fill="#45AD4C" d="M115.886 46.374c-.682 2.446-3.634 5.948-7.015 6.083-1.081.044-2.866-.35-3.503-.905l5.318-2.532-5.696 1.625c.52-2.306 1.773-3.678 3.706-4.439 2-.789 5.305-.778 7.19.168M89.512 30.349l3.418-4.407-4.067 3.678C87 25.305 92.4 21.142 96.588 20.833c.601 1.459-.404 5.406-1.484 6.942-1.272 1.806-3.31 2.715-5.592 2.574zm-28.574-16.06.751-6.523-1.855 6.243-.74-.615c-.396-.437-.358-.409-.598-.794-2.96-4.787 1.005-10.764 4.029-12.6.309.931 6.566 10.476-1.587 14.289zm-7.56 12.806c-.455-.723-1.319-7.335-1.274-7.581l-.008 7.704c-2.092-.889-4.015-3.248-4.08-6.432-.084-4.016 1.617-5.379 2.477-8.055 3.981 2.444 7.904 8.956 2.885 14.364zM43.659 53.68c-.445-.111-.234-.057-.585-.355l-1.739-2.023c-.379-.438-1.922-2.154-2.153-2.514.492.943 1.084 1.848 1.672 2.792.521.832 1.468 2.067 1.758 2.916-5.993-.212-7.973-5.118-7.805-10.373 2.248-.129 5.288 1.518 6.567 2.525 1.871 1.473 2.635 3.716 2.285 7.032zM16.611 67.192l-5.702.412c1.47.661 4.175.104 5.677.72-1.094 1.945-4.389 3.003-6.95 2.468-2.27-.474-5.164-2.379-5.965-3.944 1.951-.617 3.27-2.351 6.466-2.735 2.992-.36 5.892 1.174 6.474 3.079zm108.73-.774c-2.354 3.45-8.699 4.367-10.451.855l5.473-.291-5.446-.509c1.767-3.619 7.354-2.832 10.424-.055z"/><path fill-rule="evenodd" clip-rule="evenodd" fill="#8DC043" d="M108.583 68.907c-.364 1.581-1.827 3.169-2.849 3.908-1.275.921-3.332 1.197-4.682.56-.517-.245-.241-.038-.605-.454l4.027-1.828-4.309 1.229c1.093-4.158 4.298-3.983 8.418-3.415m15.653-11.584c-1.023 1.267-2.723 2.595-4.47 3.18a5.44 5.44 0 0 1-3.196.062c-.984-.272-1.575-.631-2.237-1.365a1.813 1.813 0 0 1-.111-.139l5.002-.931-5.13.069c2.108-4.895 9.087-2.525 10.142-.876zm-15.772-22.239c.41 3.161-.852 8.44-4.892 10.226-1.288.568-2.863.842-3.855.518l2.992-3.466c.132-.153.414-.477.514-.63l-4.263 3.354c-.694-2.018-.043-5.092 2.303-7.097 2.097-1.792 5.047-2.614 7.201-2.905zm2.818-2.553 3.836-3.048c-.289.226-3.083 3.306-3.272 3.803 2.559-.17 4.029-.801 5.2-2.5.636-.923 1.42-3.348 1.242-4.994-3.97.41-8.147 2.779-7.006 6.739zm-8.221-22.174c.3 2.319-.626 6.194-3.591 7.503-.945.419-2.101.617-2.829.38l2.195-2.543c.098-.113.305-.35.377-.461l-3.128 2.46c-.509-1.479-.03-3.737 1.689-5.208 1.54-1.314 3.705-1.918 5.287-2.131zm-21.328.376-.521-4.639c.04.348-.16 4.305-.368 4.766-1.604-1.843-2.167-3.259-1.806-5.189.195-1.05 1.304-3.21 2.536-4.196 2.391 2.955 3.6 7.369.159 9.258zm-5.195 24.462 2.398-6.958c-.99 1.675-2.357 4.688-3.499 6.316-1.605-1.312-1.873-5.508-.15-8.11 1.084-1.634 3.694-4.438 5.782-5.116 1.327 1.932 1.749 6.107.995 8.602-.798 2.637-2.722 4.476-5.526 5.266zM51.83 38.876c-1.308-.289-3.985-2.662-5.506-3.396 1.056 1.389 2.582 2.407 3.647 3.367.401.361.181.074.542.55 1.631 2.15-4.967 1.221-7.439-1.42-1.369-1.463-2.97-4.198-3.411-6.848 6.831-.381 11.524 1.168 12.167 7.747zm-5.671-24.73c-1.505-1.674-1.343-2.769-2.398-3.743.294 1.513 1.241 2.852 1.441 4.157-5.17-.747-5.76-6.895-4.651-9.727 4.464 1.492 7.277 4.521 5.608 9.313zm-14.174 15.51c-1.761-.726-5.633-3.968-7.341-4.749.481.5.824.946 1.418 1.424.75.599 1.007.754 1.684 1.493.607.662.914.818 1.563 1.383.58.502 1.14 1.133 1.583 1.572-1.348.845-3.922.717-5.57.219-4.771-1.441-8.326-8.691-7.995-10.854 8.325-.542 13.825 1.614 14.658 9.512zM21.196 47.969l-8.574-2.453 7.95 3.819c-.219.281-.106.218-.446.434a2.427 2.427 0 0 1-.488.254c-2.976 1.268-6.633.947-9.213-.805-1.582-1.076-5.169-5.1-5.728-7.636 2.184-1.284 8.255-1.194 10.704-.292 2.953 1.088 5.002 3.418 5.795 6.679zm7.436 17.046-6.164-1.789c.785.316 1.932 1.003 2.868 1.407.562.241.999.427 1.514.681l1.403.938c-3.137.791-4.774 1.589-7.621-.501-1.148-.845-3.682-3.586-4.018-5.556 2.605-.608 5.421-1.004 7.968-.059 1.99.738 3.778 2.511 4.05 4.879zm-4.116 14.401c.591-.48.947-.992 1.4-1.617l.99-1.343c.032-.034.076-.08.105-.114l.362-.33c1.174 6.068-4.677 7.917-6.265 7.774-.15-4.359 1.066-8.036 5.399-8.253l-1.991 3.883zm76.273 1.437c-4.758.553-8.734-.714-9.128-5.384 1.532.698 2.708 1.784 4.219 2.457l-3.55-3.113c2.879-1.933 7.501 1.353 8.459 6.04z"/></svg>